<?xml version="1.0" standalone="no"?>
<!DOCTYPE svg PUBLIC "-//W3C//DTD SVG 20010904//EN"
 "http://www.w3.org/TR/2001/REC-SVG-20010904/DTD/svg10.dtd">
<svg version="1.0" xmlns="http://www.w3.org/2000/svg"
 width="840.000000pt" height="234.000000pt" viewBox="0 0 840.000000 234.000000"
 preserveAspectRatio="xMidYMid meet">
<metadata>
Created by potrace 1.16, written by Peter Selinger 2001-2019
</metadata>
<g transform="translate(0.000000,234.000000) scale(0.100000,-0.100000)"
fill="#000000" stroke="none">
<path d="M902 1963 c-59 -20 -133 -97 -155 -159 -15 -44 -17 -99 -17 -580 0
-467 2 -536 16 -570 25 -59 67 -107 122 -137 l49 -27 554 0 c624 -1 595 -4
674 75 78 78 75 50 75 665 0 621 3 596 -81 676 -81 76 -63 74 -662 73 -449 0
-539 -3 -575 -16z m496 -402 c21 -11 22 -15 10 -33 -13 -19 -23 -21 -89 -20
-58 2 -78 -2 -94 -15 -26 -23 -48 -74 -43 -105 3 -22 7 -23 94 -26 98 -3 110
-11 94 -56 -6 -17 -16 -19 -84 -17 -48 1 -83 -2 -92 -10 -11 -9 -14 -48 -14
-200 l0 -189 -25 -6 c-51 -13 -55 2 -55 206 0 209 3 200 -71 200 -39 0 -40 1
-37 33 3 31 5 32 53 37 l50 5 5 45 c11 82 51 139 115 162 30 11 157 3 183 -11z
m116 -297 c3 -9 -2 -28 -12 -42 -33 -48 -44 -89 -39 -139 11 -91 19 -122 38
-139 23 -21 24 -40 3 -48 -46 -18 -111 126 -99 217 14 104 88 206 109 151z
m385 -7 c26 -29 61 -120 61 -162 0 -88 -62 -208 -101 -198 -25 7 -24 20 6 59
20 27 27 49 32 112 5 67 3 83 -16 119 -11 23 -25 44 -31 48 -7 4 -7 13 0 26
14 25 22 24 49 -4z m-247 -69 c25 -46 50 -56 56 -23 7 35 34 65 58 65 31 0 30
-13 -6 -79 -17 -30 -30 -60 -30 -67 0 -7 14 -33 31 -59 35 -52 35 -80 -1 -80
-19 0 -29 9 -43 38 -10 20 -24 37 -31 37 -7 0 -24 -17 -37 -37 -16 -26 -33
-39 -52 -41 -34 -4 -34 6 3 71 17 30 30 61 30 70 0 9 -13 42 -30 74 -16 31
-30 61 -30 65 0 5 13 8 29 8 24 0 34 -8 53 -42z"/>
<path d="M2790 1521 c-6 -12 -10 -130 -10 -320 0 -332 0 -331 64 -331 52 0 56
11 56 151 0 106 3 128 16 133 9 3 76 6 149 6 132 0 133 0 139 24 7 27 -1 57
-18 68 -6 4 -73 8 -148 8 l-138 0 0 85 0 85 148 0 c193 0 194 0 190 59 l-3 46
-217 3 c-207 2 -218 1 -228 -17z"/>
<path d="M4975 1528 c-2 -7 -6 -47 -7 -88 -3 -66 -5 -75 -23 -78 -60 -9 -65
-12 -65 -41 0 -34 15 -48 55 -53 l30 -3 5 -155 c6 -176 13 -197 81 -224 49
-20 70 -20 116 -1 33 14 35 18 29 47 -8 40 -5 37 -56 42 -23 2 -47 9 -54 16
-12 12 -22 216 -12 256 6 21 12 24 49 24 57 0 69 10 65 51 -3 33 -4 34 -58 39
l-55 5 -5 85 -5 85 -43 3 c-28 2 -44 -1 -47 -10z"/>
<path d="M6855 1529 c-4 -5 36 -74 89 -152 53 -79 96 -149 96 -157 -1 -8 -47
-85 -104 -170 -74 -111 -101 -159 -93 -167 5 -7 29 -13 53 -13 52 0 59 7 139
135 64 104 81 123 95 109 5 -5 41 -58 80 -119 39 -60 76 -113 83 -117 20 -13
94 -9 105 5 9 10 -14 51 -93 170 -58 86 -105 161 -105 167 0 6 43 75 96 154
53 80 93 149 89 155 -3 6 -28 11 -54 11 -57 0 -65 -8 -141 -132 -31 -53 -59
-88 -69 -88 -9 0 -40 39 -75 95 -32 53 -65 102 -73 110 -17 17 -108 21 -118 4z"/>
<path d="M3340 1345 c-8 -10 -11 -61 -8 -182 3 -155 5 -171 26 -209 25 -43 91
-84 136 -84 13 0 50 14 82 30 57 30 73 29 74 -6 0 -25 70 -33 89 -10 8 9 11
82 9 242 l-3 229 -45 0 -45 0 -5 -150 c-3 -88 -10 -159 -17 -171 -34 -60 -129
-77 -170 -30 -22 26 -23 35 -23 180 0 105 -4 156 -12 164 -17 17 -73 15 -88
-3z"/>
<path d="M3886 1344 c-3 -9 -6 -113 -6 -233 0 -232 2 -241 50 -241 50 0 53 8
58 166 2 82 8 157 14 167 14 28 69 57 106 57 22 0 41 -8 57 -25 24 -23 25 -28
25 -179 0 -170 5 -186 59 -186 50 0 53 14 49 202 -3 153 -5 177 -24 208 -24
42 -86 80 -131 80 -34 0 -117 -32 -127 -49 -12 -19 -24 -12 -35 19 -9 26 -15
30 -49 30 -27 0 -42 -5 -46 -16z"/>
<path d="M4545 1344 c-76 -28 -139 -111 -151 -197 -8 -58 18 -147 56 -191 34
-38 100 -73 157 -82 73 -11 208 54 201 98 -2 11 -15 26 -29 35 -24 15 -28 14
-58 -8 -23 -17 -45 -23 -85 -23 -47 -1 -59 3 -85 29 -68 65 -61 189 14 235 46
28 103 26 151 -6 36 -25 40 -25 64 -11 38 23 37 51 -3 81 -70 53 -155 68 -232
40z"/>
<path d="M5305 1350 c-3 -5 -6 -111 -7 -235 -1 -245 -1 -245 53 -245 47 0 49
9 49 245 0 159 -3 224 -12 233 -14 14 -74 16 -83 2z"/>
<path d="M5662 1341 c-101 -35 -152 -111 -152 -226 0 -122 57 -197 173 -230
57 -16 64 -16 122 0 115 31 177 111 178 228 1 114 -61 201 -165 232 -66 19
-91 19 -156 -4z m158 -101 c39 -28 53 -69 48 -140 -4 -52 -9 -66 -35 -92 -35
-35 -102 -47 -143 -26 -83 44 -96 194 -22 255 36 30 112 31 152 3z"/>
<path d="M6087 1354 c-4 -4 -7 -109 -7 -234 0 -238 2 -250 46 -250 53 0 54 2
54 152 0 156 8 185 63 218 36 22 84 25 108 7 33 -26 39 -55 39 -204 0 -160 4
-173 50 -173 54 0 55 5 55 192 0 156 -2 177 -21 213 -24 46 -83 85 -132 85
-37 0 -97 -23 -124 -47 -20 -18 -34 -10 -40 22 -2 15 -12 21 -43 23 -23 2 -44
0 -48 -4z"/>
</g>
</svg>
